<?xml version="1.0" encoding="UTF-8"?><svg id="Layer_2" xmlns="http://www.w3.org/2000/svg" viewBox="0 0 132.29 162.4"><g id="Layer_1-2"><path d="M104.04,78.58c17.46-6.2,25.96-21.59,25.96-36.75C130,18.63,112.08,.03,85.44,.03h-19.54v-.03h-11c-3.11,.14-5.74,2.84-5.74,6.2V110.25c0,22.51-17.69,40.89-39.74,40.89h-3.9c-3.22,0-5.51,2.53-5.51,5.51,0,3.22,2.3,5.74,5.51,5.74h3.9c29.17,0,51.91-22.74,51.91-52.6V11.05h22.73c20.67,0,33.54,13.78,33.54,31.24s-13.78,31.01-31.01,31.01h-11.03c-3.22,0-5.51,2.53-5.51,5.74,0,2.99,2.3,5.51,5.51,5.51h11.94c17.92,0,32.39,14.47,32.39,32.62s-13.55,32.39-34.91,32.39h-18.06c-3.11,0-5.63,2.52-5.63,5.63s2.52,5.63,5.63,5.63h19.43c27.33,0,45.94-19.29,45.94-43.18,0-17-10.34-33.08-28.25-39.05Z"/></g></svg>